<svg width="99" height="81" viewBox="0 0 99 81" fill="none" xmlns="http://www.w3.org/2000/svg">
<path fill-rule="evenodd" clip-rule="evenodd" d="M47 26H21.8518H9.15063C4.54346 26.0079 0.658447 29.3956 0.0756836 33.919C0.00390625 34.1119 -0.0158691 34.3206 0.0178223 34.5233C0.00805664 34.7005 0 34.8757 0 35.0548V51.629V71.9471C0 72.0173 0.000488281 72.0868 0.00195312 72.1561C0.00317383 72.2191 0.00512695 72.2819 0.00805664 72.3448C0.00805664 72.3557 0.0090332 72.3665 0.0100098 72.3773C0.0109863 72.3881 0.0119629 72.3989 0.0119629 72.4097C0.0178223 72.52 0.0239258 72.6302 0.0339355 72.7405C0.0368652 72.77 0.0405273 72.7996 0.0439453 72.829C0.0473633 72.8585 0.0507812 72.8881 0.0537109 72.9176C0.0617676 72.9885 0.067627 73.0613 0.0776367 73.1321L0.101562 73.2916L0.112061 73.3616C0.119629 73.415 0.127441 73.4684 0.137207 73.5219C0.143311 73.5593 0.153076 73.5967 0.15918 73.6321C0.177002 73.7247 0.194824 73.8152 0.214844 73.9077L0.223145 73.9416L0.232666 73.9806C0.256592 74.0849 0.282471 74.1873 0.310303 74.2916C0.654541 75.5553 1.27319 76.7383 2.13647 77.754C2.18213 77.8466 2.24194 77.9332 2.31152 78.008C2.3811 78.0867 2.46265 78.1536 2.55225 78.2108C4.05615 79.7678 6.06323 80.7323 8.20752 80.9508C8.20947 80.9508 8.21118 80.9512 8.21313 80.9516C8.21558 80.9521 8.21826 80.9528 8.22168 80.9528C8.34888 80.9666 8.47607 80.9744 8.60352 80.9823L8.68506 80.9882C8.84033 80.996 8.99536 81 9.15063 81H64.8494C65.0046 81 65.1597 80.996 65.3149 80.9882L65.3965 80.9823C65.4617 80.9783 65.5266 80.9742 65.5918 80.9694C65.6541 80.9648 65.7163 80.9595 65.7786 80.9528C65.7825 80.9528 65.7864 80.9508 65.7925 80.9508C67.9368 80.7323 69.9438 79.7658 71.4478 78.2108C71.5374 78.1556 71.6189 78.0867 71.6885 78.008C71.7581 77.9312 71.8179 77.8466 71.8635 77.754C72.7268 76.7383 73.3474 75.5553 73.6897 74.2916C73.7175 74.1892 73.7434 74.0849 73.7673 73.9806L73.7717 73.9631C73.7761 73.9453 73.7808 73.9271 73.7852 73.9077C73.8052 73.8172 73.823 73.7247 73.8408 73.6321C73.8489 73.5947 73.8567 73.5574 73.8628 73.5219C73.8767 73.4451 73.8867 73.3684 73.8984 73.2916C73.9065 73.2385 73.9165 73.1853 73.9224 73.1321C73.9324 73.0613 73.9382 72.9885 73.9463 72.9176C73.9521 72.8586 73.9602 72.7995 73.9661 72.7405C73.9761 72.6302 73.9822 72.52 73.988 72.4097C73.99 72.3881 73.9919 72.3665 73.9919 72.3448C73.998 72.2129 74 72.079 74 71.9471V51.9811C73.6682 51.9937 73.335 52 73 52C72.5347 52 72.072 51.9878 71.6128 51.9636V71.9492C71.6128 72.1007 71.6089 72.2503 71.5969 72.3999C71.5945 72.4371 71.5906 72.4735 71.5867 72.5101C71.584 72.5336 71.5813 72.5571 71.5791 72.581L71.5769 72.6043C71.5696 72.6855 71.5623 72.7679 71.5513 72.8487C71.5413 72.9274 71.5254 73.0042 71.5115 73.0829L71.4995 73.1558C71.4922 73.2012 71.4846 73.2468 71.4756 73.2916C71.4587 73.3718 71.4382 73.4503 71.4177 73.5286L71.4141 73.5416C71.3979 73.6026 71.3862 73.6656 71.3682 73.7266C71.3538 73.7774 71.3374 73.8282 71.3208 73.879C71.3098 73.9128 71.2988 73.9467 71.2886 73.9806C71.2795 74.0106 71.2705 74.0405 71.261 74.0702C71.252 74.099 71.2427 74.1276 71.2329 74.1558C71.2129 74.2136 71.1904 74.2698 71.1675 74.3265L71.1335 74.4117C71.1243 74.4347 71.1155 74.4577 71.1067 74.4806C71.0945 74.5125 71.0825 74.5441 71.0698 74.575C71.0544 74.61 71.0386 74.6446 71.0222 74.6791C70.9983 74.7303 70.9734 74.7812 70.9485 74.8329C70.9246 74.8821 70.9028 74.9333 70.877 74.9825C70.8638 75.0075 70.8501 75.0325 70.8362 75.0575C70.8022 75.119 70.7671 75.1801 70.7317 75.2404C70.7224 75.2567 70.7136 75.2729 70.7048 75.2892C70.6892 75.318 70.6738 75.3465 70.656 75.3742L53.8369 58.3512C53.6003 58.115 53.2859 57.9988 52.9736 58.0048C52.6414 57.9792 52.3013 58.0854 52.0447 58.3354C51.5752 58.7921 51.5693 59.5402 52.0308 60.0047L69.0786 77.1675C67.8811 78.1221 66.3892 78.6438 64.8494 78.6418H9.15063C7.61279 78.6438 6.12085 78.1221 4.92139 77.1675L21.9692 60.0047C22.4307 59.5402 22.4248 58.7921 21.9553 58.3354C21.6987 58.0854 21.3586 57.9792 21.0264 58.0048C20.7141 58.0008 20.3997 58.115 20.1631 58.3512L3.34204 75.3742C3.32617 75.3478 3.31104 75.3206 3.2959 75.293L3.26636 75.2404L3.24292 75.2001C3.20117 75.1273 3.15991 75.0556 3.12109 74.9825C3.10498 74.952 3.09058 74.9208 3.07617 74.8898L3.04956 74.8329C3.00781 74.7482 2.96606 74.6636 2.92822 74.575C2.91333 74.5419 2.90088 74.5081 2.88818 74.474C2.88062 74.4533 2.8728 74.4325 2.8645 74.4117L2.83984 74.3503C2.81372 74.286 2.78784 74.2214 2.76514 74.1558C2.74512 74.0987 2.72925 74.0396 2.70947 73.9806C2.69629 73.9411 2.68335 73.902 2.6709 73.8628C2.65649 73.8179 2.64258 73.7728 2.62988 73.7266C2.61914 73.69 2.6106 73.6527 2.60205 73.6155C2.59619 73.5908 2.59033 73.566 2.58398 73.5416C2.56421 73.4589 2.54028 73.3763 2.52246 73.2916C2.50854 73.2227 2.49854 73.1519 2.48657 73.0829L2.4751 73.0192C2.46436 72.9624 2.4541 72.9061 2.44678 72.8487C2.43481 72.7601 2.42896 72.6696 2.41895 72.581C2.41284 72.52 2.40503 72.4609 2.40112 72.3999C2.39111 72.2503 2.38501 72.0988 2.38501 71.9492V50.8633V36.8736L30.8193 60.6995L31.5732 61.3472C33.135 62.668 35.0664 63.3274 36.998 63.3254C38.9297 63.3274 40.8611 62.668 42.4226 61.3472L43.1765 60.6995L58.6833 47.7068C58.0027 47.2569 57.3442 46.7758 56.7102 46.2656L40.8472 59.5579C39.8008 60.4397 38.5237 60.9003 37.2327 60.9535C35.7866 61.0086 34.3245 60.546 33.1528 59.5579L32.3669 58.9004L30.6006 57.3828C30.5972 57.3852 30.5935 57.3873 30.5898 57.3893C30.585 57.3922 30.5803 57.395 30.5767 57.3985L2.49658 33.8698C3.07935 30.6849 5.87817 28.366 9.15063 28.3621H21.6829H47.106C47.0359 27.5841 47 26.7963 47 26Z" fill="black"/>
<path fill-rule="evenodd" clip-rule="evenodd" d="M73 50C86.2548 50 97 39.2548 97 26C97 12.7452 86.2548 2 73 2C59.7452 2 49 12.7452 49 26C49 39.2548 59.7452 50 73 50ZM73 52C87.3594 52 99 40.3594 99 26C99 11.6406 87.3594 0 73 0C58.6406 0 47 11.6406 47 26C47 40.3594 58.6406 52 73 52Z" fill="black"/>
<path fill-rule="evenodd" clip-rule="evenodd" d="M85.8278 17.2756C86.2278 17.7328 86.1815 18.4278 85.7243 18.8278L69.7243 32.8278C69.502 33.0223 69.2109 33.1192 68.9164 33.0968C68.6219 33.0744 68.3488 32.9344 68.1585 32.7085L60.1585 23.2085C59.7672 22.7438 59.8267 22.0499 60.2914 21.6586C60.7561 21.2673 61.45 21.3267 61.8413 21.7914L69.1192 30.4339L84.2756 17.1721C84.7328 16.7721 85.4277 16.8184 85.8278 17.2756Z" fill="black"/>
</svg>
