<?xml version="1.0" encoding="utf-8"?>
<!-- Generator: Adobe Illustrator 24.1.0, SVG Export Plug-In . SVG Version: 6.00 Build 0)  -->
<svg version="1.1" id="Слой_1" xmlns="http://www.w3.org/2000/svg" xmlns:xlink="http://www.w3.org/1999/xlink" x="0px" y="0px"
	 viewBox="0 0 20 20" style="enable-background:new 0 0 20 20;" xml:space="preserve">
<style type="text/css">
	.st0{fill:black;}
</style>
<path class="st0" d="M10,8.1c-0.6,0-1.1-0.2-1.6-0.6C8,7.2,7.7,6.7,7.6,6.1C7.5,5.6,7.6,5,7.8,4.5s0.7-0.9,1.2-1.1
	c0.5-0.2,1.1-0.2,1.7-0.1c0.5,0.2,1,0.5,1.3,1c0.3,0.5,0.5,1,0.4,1.6c-0.1,0.6-0.3,1.1-0.7,1.5c-0.2,0.2-0.5,0.4-0.8,0.5
	C10.6,8.1,10.3,8.1,10,8.1z M10,4.2c-0.3,0-0.7,0.1-0.9,0.3C8.8,4.7,8.6,5,8.5,5.4c-0.1,0.3,0,0.7,0.1,1C8.8,6.7,9.1,6.9,9.4,7
	c0.3,0.1,0.7,0.1,1,0c0.3-0.1,0.6-0.3,0.8-0.6c0.2-0.3,0.3-0.6,0.2-1c0-0.3-0.2-0.7-0.4-0.9C10.8,4.3,10.4,4.2,10,4.2z"/>
<path class="st0" d="M10,16.6l-0.4-0.4C9.4,15.9,4.2,9.7,4.2,5.7c0-1.5,0.6-3,1.7-4C7,0.6,8.5,0,10,0c1.5,0,3,0.6,4.1,1.7
	c1.1,1.1,1.7,2.5,1.7,4c0,3.8-5.2,10.2-5.4,10.4L10,16.6z M10,0.9c-1.3,0-2.5,0.5-3.4,1.4S5.2,4.4,5.2,5.7c0,1.5,0.9,3.7,2.6,6.2
	c0.9,1.3,1.8,2.5,2.2,3.1c0.5-0.6,1.4-1.8,2.3-3.2c1.7-2.6,2.6-4.8,2.6-6.2c0-1.3-0.5-2.5-1.4-3.4C12.5,1.4,11.3,0.9,10,0.9L10,0.9z
	"/>
<path class="st0" d="M17.4,12.6h-3.1c-0.1,0.2-0.2,0.3-0.3,0.5s-0.2,0.3-0.3,0.5h3.1l1.8,4.9H1.4l1.8-4.9h3
	c-0.1-0.2-0.2-0.3-0.3-0.5c-0.1-0.2-0.2-0.3-0.3-0.5H2.6L0,19.5h20L17.4,12.6z"/>
</svg>
