<svg width="20" height="20" viewBox="0 0 20 20" fill="none" xmlns="http://www.w3.org/2000/svg">
<path d="M10.0007 8.13152C9.42877 8.13133 8.87463 7.93283 8.43268 7.56986C7.99073 7.20689 7.68832 6.70191 7.57697 6.14095C7.46562 5.58 7.55223 4.99779 7.82204 4.49354C8.09185 3.98929 8.52816 3.5942 9.05662 3.37559C9.58509 3.15697 10.173 3.12837 10.7202 3.29466C11.2674 3.46094 11.74 3.81182 12.0575 4.2875C12.3749 4.76318 12.5177 5.33423 12.4613 5.90335C12.4049 6.47246 12.1529 7.00441 11.7483 7.40857C11.519 7.63827 11.2466 7.82039 10.9466 7.94446C10.6467 8.06853 10.3252 8.1321 10.0007 8.13152ZM10.0007 4.16576C9.65471 4.1658 9.31948 4.28581 9.0521 4.50532C8.78472 4.72484 8.60174 5.03029 8.53433 5.36961C8.46693 5.70893 8.51927 6.06112 8.68245 6.36617C8.84563 6.67122 9.10954 6.91024 9.42921 7.0425C9.74888 7.17476 10.1045 7.19208 10.4355 7.09151C10.7665 6.99093 11.0524 6.77868 11.2445 6.49093C11.4365 6.20319 11.5228 5.85774 11.4887 5.51348C11.4546 5.16922 11.3022 4.84744 11.0574 4.60298C10.7769 4.32308 10.3969 4.16585 10.0007 4.16576Z" fill="black"/>
<path d="M10.0055 16.589L9.62743 16.1443C9.40574 15.8845 4.20837 9.72769 4.20837 5.71144C4.23057 4.18906 4.85091 2.73655 5.93533 1.66782C7.01974 0.599101 8.48114 0 10.0037 0C11.5262 0 12.9876 0.599101 14.072 1.66782C15.1565 2.73655 15.7768 4.18906 15.799 5.71144C15.799 9.52941 10.6016 15.8709 10.3799 16.1382L10.0055 16.589ZM10.0055 0.894638C8.72747 0.894637 7.50166 1.40192 6.59736 2.30507C5.69306 3.20822 5.1842 4.43338 5.18257 5.71144C5.18257 7.20414 6.07302 9.36437 7.75662 11.9594C8.63106 13.3055 9.51166 14.446 9.99445 15.0495C10.4785 14.4336 11.3677 13.2513 12.247 11.8793C13.9282 9.25722 14.8174 7.12409 14.8174 5.71144C14.8158 4.43444 14.3078 3.21022 13.4048 2.30725C12.5018 1.40427 11.2776 0.896268 10.0006 0.894638H10.0055Z" fill="black"/>
<path d="M17.4124 12.6479H14.273C14.1721 12.8121 14.0702 12.9763 13.9676 13.1405C13.865 13.3047 13.7603 13.469 13.6536 13.6332H16.7326L18.58 18.53H1.42373L3.27114 13.6332H6.28856C6.18265 13.4718 6.07796 13.3068 5.97204 13.1405C5.86613 12.9743 5.7676 12.8142 5.66537 12.6479H2.58637L0 19.5153H20L17.4124 12.6479Z" fill="black"/>
</svg>
