<?xml version="1.0" encoding="utf-8"?>
<!-- Generator: Adobe Illustrator 24.1.0, SVG Export Plug-In . SVG Version: 6.00 Build 0)  -->
<svg version="1.1" id="Слой_1" xmlns="http://www.w3.org/2000/svg" xmlns:xlink="http://www.w3.org/1999/xlink" x="0px" y="0px"
	 viewBox="0 0 968 256" style="enable-background:new 0 0 968 256;" xml:space="preserve">
<style type="text/css">
	.st0{fill:#1D140F;}
</style>
<g transform="translate(0.000000,256.000000) scale(0.100000,-0.100000)">
	<path class="st0" d="M20,2172c0-15,13-22,56-31c34-8,68-24,88-42c38-33,21,5,365-784c211-483,261-591,278-593c11-2,23,3,26,10
		c78,196,507,1229,528,1269c37,74,79,115,140,136c34,12,49,23,49,35c0,17-17,18-225,18c-209,0-225-1-225-18c0-13,16-23,62-37
		c49-16,66-27,81-52c16-29,17-36,4-85c-14-54-377-951-383-946c-7,7-383,878-398,921c-35,102-11,149,84,168c48,9,60,15,60,30
		c0,18-14,19-295,19C35,2190,20,2189,20,2172z"/>
	<path class="st0" d="M2180,2170c0-17,7-20,48-20c26,0,66-9,89-19c34-16,44-27,52-58c7-25,11-236,11-606c0-643,2-623-72-657
		c-24-11-62-20-85-20c-36,0-43-3-43-20c0-20,7-20,554-20h553l58,168c32,92,60,173,62,180c3,7-3,12-15,12c-14,0-32-18-57-60
		c-61-100-109-153-166-185l-54-30l-228-3c-236-4-277,1-293,36c-4,10-9,147-12,305l-4,288l218-3c206-3,221-4,255-25
		c41-26,52-46,69-126c9-46,15-57,31-57c18,0,19,10,19,250c0,238-1,250-19,250c-14,0-20-10-25-42c-11-69-41-125-78-145
		c-28-15-64-18-250-21l-218-4v286v286h255c208,0,263-3,293-15c70-30,96-67,121-172c11-43,17-53,34-53c19,0,20,4,14,113
		c-4,61-7,133-7,160v47h-555C2187,2190,2180,2190,2180,2170z"/>
	<path class="st0" d="M4070,2171c0-19,6-21,50-21c64,0,113-20,137-56c17-26,18-64,18-624c0-541-2-598-17-621c-23-36-77-59-137-59
		c-44,0-51-3-51-20c0-20,7-20,310-20s310,0,310,20c0,17-7,20-47,20c-27,0-66,9-89,19c-66,30-69,46-69,350v263l74,2l73,1l42-55
		c23-30,134-182,246-337l203-283h194c182,0,193,1,193,19c0,15-12,21-58,30c-86,17-154,55-214,120c-51,55-372,494-384,524
		c-4,10,5,16,28,21c59,11,175,73,217,116c22,23,53,67,68,98c24,49,28,69,28,142s-4,93-28,141c-30,63-103,136-165,168
		c-95,48-143,54-549,58l-383,5V2171z M4790,2083c97-44,156-131,167-246c19-207-146-347-408-347h-69v300v299l38,6c20,4,44,8,52,10
		C4612,2116,4748,2102,4790,2083z"/>
	<path class="st0" d="M6210,2170c0-17,7-20,48-20c62,0,113-26,134-70c17-32,18-83,18-610s-1-578-18-610c-21-44-72-70-134-70
		c-41,0-48-3-48-20c0-20,7-20,368-20c408,0,503,9,639,58c190,70,325,204,393,391c76,207,61,456-38,646c-54,102-165,212-262,258
		c-155,72-279,87-750,87C6217,2190,6210,2190,6210,2170z M6973,2095c154-32,300-145,369-285c55-111,72-192,72-345
		c0-201-48-342-156-460c-128-141-292-198-501-175c-50,6-101,13-114,16l-23,6v614v614l23,5C6747,2112,6877,2115,6973,2095z"/>
	<path class="st0" d="M8420,2170c0-17,7-20,48-20c56,0,108-24,136-63c21-28,21-38,21-605c0-450-3-585-13-614c-16-46-76-78-145-78
		c-40,0-47-3-47-20c0-20,7-20,310-20s310,0,310,20c0,17-7,20-48,20c-30,0-65,9-92,23c-73,36-71,20-68,677c3,519,5,578,20,601
		c23,36,77,59,137,59c44,0,51,3,51,20c0,20-7,20-310,20S8420,2190,8420,2170z"/>
</g>
</svg>
