<?xml version="1.0" encoding="utf-8"?>
<!-- Generator: Adobe Illustrator 24.0.3, SVG Export Plug-In . SVG Version: 6.00 Build 0)  -->
<svg version="1.1" id="Слой_1" xmlns="http://www.w3.org/2000/svg" xmlns:xlink="http://www.w3.org/1999/xlink" x="0px" y="0px"
	 viewBox="0 0 40 40" style="enable-background:new 0 0 40 40;" xml:space="preserve">
<style type="text/css">
	.st0{fill:#2A1A12;}
</style>
<path class="st0" d="M20,4.6c-8.2,0-14.9,6.7-14.9,14.9c0,2.6,0.7,5.2,2,7.4l-2,7.5l7.8-1.8c2.2,1.2,4.6,1.8,7.1,1.8h0
	c8.2,0,14.9-6.7,14.9-14.9c0-4-1.5-7.7-4.3-10.5C27.7,6.2,24,4.6,20,4.6z M20,7.6c3.2,0,6.2,1.2,8.4,3.5c2.2,2.2,3.5,5.2,3.5,8.4
	c0,6.6-5.3,11.9-11.9,11.9c-2,0-3.9-0.5-5.7-1.4l-1-0.5l-1.1,0.3l-2.9,0.7l0.7-2.7l0.3-1.2l-0.6-1.1c-1-1.8-1.6-3.9-1.6-5.9
	C8.1,12.9,13.5,7.6,20,7.6z M14.8,12.6c-0.2,0-0.7,0.1-1,0.5c-0.3,0.4-1.3,1.3-1.3,3.1s1.3,3.6,1.5,3.8c0.2,0.2,2.6,4.1,6.3,5.6
	c3.1,1.2,3.8,1,4.5,0.9c0.7-0.1,2.2-0.9,2.5-1.8c0.3-0.9,0.3-1.6,0.2-1.8c-0.1-0.2-0.3-0.2-0.7-0.4c-0.4-0.2-2.2-1.1-2.5-1.2
	c-0.3-0.1-0.6-0.2-0.8,0.2c-0.2,0.4-1,1.2-1.2,1.5c-0.2,0.2-0.4,0.3-0.8,0.1c-0.4-0.2-1.6-0.6-3-1.8c-1.1-1-1.8-2.2-2.1-2.6
	c-0.2-0.4,0-0.6,0.2-0.8c0.2-0.2,0.4-0.4,0.6-0.7c0.2-0.2,0.2-0.4,0.4-0.6c0.1-0.2,0.1-0.5,0-0.7c-0.1-0.2-0.8-2-1.1-2.8
	c-0.3-0.6-0.6-0.6-0.8-0.6C15.3,12.6,15,12.6,14.8,12.6z"/>
</svg>
